<?xml version="1.0" encoding="UTF-8" standalone="no"?>
<svg
   xmlns:dc="http://purl.org/dc/elements/1.1/"
   xmlns:cc="http://creativecommons.org/ns#"
   xmlns:rdf="http://www.w3.org/1999/02/22-rdf-syntax-ns#"
   xmlns:svg="http://www.w3.org/2000/svg"
   xmlns="http://www.w3.org/2000/svg"
   viewBox="0 0 675.23999 746.66669"
   height="746.66669"
   width="675.23999"
   xml:space="preserve"
   id="svg2"
   version="1.1"><metadata
     id="metadata8"><rdf:RDF><cc:Work
         rdf:about=""><dc:format>image/svg+xml</dc:format><dc:type
           rdf:resource="http://purl.org/dc/dcmitype/StillImage" /></cc:Work></rdf:RDF></metadata><defs
     id="defs6" /><g
     transform="matrix(1.3333333,0,0,-1.3333333,0,746.66667)"
     id="g10"><g
       transform="scale(0.1)"
       id="g12"><path
         id="path14"
         style="fill:#487944;fill-opacity:1;fill-rule:nonzero;stroke:none"
         d="M 5064.28,2532.11 C 5064.28,1133.66 3930.62,0 2532.14,0 1133.7,0 0,1133.66 0,2532.11 0,3930.6 1133.7,5064.26 2532.14,5064.26 c 1398.48,0 2532.14,-1133.66 2532.14,-2532.15" /><path
         id="path16"
         style="fill:#568f37;fill-opacity:1;fill-rule:nonzero;stroke:none"
         d="M 5064.28,2679.77 C 5064.28,1281.3 3930.62,147.629 2532.14,147.629 1133.7,147.629 0,1281.3 0,2679.77 0,4078.25 1133.7,5211.9 2532.14,5211.9 c 1398.48,0 2532.14,-1133.65 2532.14,-2532.13" /><path
         id="path18"
         style="fill:#445447;fill-opacity:1;fill-rule:nonzero;stroke:none"
         d="m 4975.71,2714.77 c 0,0 -103.29,488.4 -160.68,632.4 -57.45,143.97 -142.7,455.18 -314.89,578.58 -172.12,123.45 -314.82,447.27 -448.69,508.96 -133.92,61.74 -410.5,2.67 -563.48,23.24 -153.05,20.59 -488.65,120.78 -603.47,79.63 -67.21,-24.09 -432.04,-47.81 -612.11,-75.33 22.64,101.07 167.16,231.32 281.94,271.36 172.18,60.01 253.69,120.96 349.31,180.97 95.68,60.01 325.22,30.03 459.09,15.01 85.94,-9.63 202.96,11.59 276.13,28.03 -183.4,89.3 -379.21,157.01 -584.12,200.02 -96.65,6.75 -338.93,20.87 -399.78,-3.02 -76.56,-30 -106.06,-120 -182.55,-195.02 -76.49,-75.03 -182.6,-90.02 -278.22,-180.03 -95.64,-90.04 -93.99,-255.04 -93.99,-255.04 l 28.79,-66.61 c -6.5,-4.35 -12.94,-9.66 -19.38,-16.13 15.26,111.82 -179.47,115.69 -277.28,141.25 -114.8,30 -325.16,231.84 -382.55,261.84 -44.23,23.11 -258.45,-64.49 -380.89,-99.2 -193.648,-137.41 -367.066,-301.2 -515.113,-486.37 11.828,2.76 23.586,5.21 35.102,7.25 172.226,29.98 344.449,82.42 535.721,157.44 191.3,75.02 286.89,113.08 459.05,83.07 83.99,-14.63 319.62,-111.27 420.91,-140.47 -58.4,-2.72 -213.93,-5.74 -267.82,-19.13 C 1577.6,4307.98 1360.33,4107.64 1201.19,4048.36 1041.98,3989.11 823.105,3834.72 703.723,3716.19 584.363,3597.64 572.109,3320.74 512.41,3123.15 452.766,2925.62 284.375,2714.62 224.688,2517.06 c -59.629,-197.57 10.808,-503.71 10.808,-681.56 0,-129.41 159.77,-416.96 234.34,-624.02 C 758.137,807.262 1161.97,491.461 1633.48,312.34 1592.93,372.699 1540.97,450.211 1499.61,511.789 1420,630.34 1002.2,926.719 962.441,1104.51 922.668,1282.34 781.055,1799.41 761.105,1918 c -19.914,118.47 -40.519,702.77 19.176,860.79 59.66,158.03 182.16,340.97 221.919,459.52 39.81,118.55 258.66,454.43 338.23,513.69 79.57,59.26 208.06,187.61 347.28,306.14 67.92,57.83 190.47,118.01 298.25,164.52 -57.04,-134.23 -105.82,-279.45 -135.43,-313.25 -69.28,-79.34 -51.99,-277.62 -138.64,-396.59 -86.63,-118.98 -34.63,-317.27 -51.96,-436.28 -17.31,-119.01 51.96,-337.08 51.96,-396.6 0,-59.48 -24.38,-317.23 -76.34,-436.28 -52.04,-118.93 93.67,-495.72 93.67,-594.88 0,-99.1 67.77,-589.08 86.67,-654.389 18.9,-65.289 -155.96,-475.942 -138.63,-594.891 7.9,-54.48 77.51,-108.859 150.67,-151.859 223.66,-64.629 459.72,-100.012 704.21,-100.012 4.86,0 9.55,0.363 14.41,0.391 l 31.93,73 c 0,0 -17.37,277.57 -86.68,416.39 -69.36,138.852 -295.94,719.46 -295.94,897.92 0,178.49 87.94,529.88 53.26,728.19 -34.68,198.33 -190.59,753.53 -207.99,932.03 -17.31,178.45 52.06,535.38 86.72,674.2 23.16,92.96 62.95,301.22 86.66,428.8 95.01,-123.41 340.83,-446.19 402.2,-560.69 76.53,-142.74 290.29,-425.44 309.4,-527.41 19.14,-101.96 -118.13,-371.96 -3.32,-535.05 114.77,-163.13 344.35,-381.34 382.63,-585.27 38.28,-203.94 325.24,-451.54 344.36,-573.91 19.1,-122.33 0,-487.28 38.28,-650.419 26.21,-111.731 -138.2,-389.18 -123.77,-498.129 221.57,99.047 426.27,228.867 608.68,384.34 29.71,129.609 94.79,282.558 69.81,362.518 -38.25,122.32 -267.79,405.72 -325.18,650.42 -57.42,244.66 -191.34,624.94 -191.34,767.69 0,142.76 -288.64,407.82 -326.92,468.98 -38.28,61.2 -132.2,407.87 -132.2,469.03 0,61.19 -286.96,428.24 -344.35,489.39 -40.28,42.96 -330.02,264.4 -554.72,368.29 146.64,11.79 451.25,-29.76 535.57,-75.07 114.82,-61.75 497.45,-173.6 707.89,-173.6 210.4,0 439.98,-262.08 497.34,-344.33 57.37,-82.3 271.15,-304.9 328.46,-490.03 57.46,-185.13 149.77,-826.42 168.94,-888.15 19.1,-61.73 301.97,-550.35 301.97,-550.35 0,0 45.6,117.33 62.99,193.18 54.8,197.05 86.26,403.56 91.48,616.77 -44.69,57.53 -87,98.02 -87,98.02" /><path
         id="path20"
         style="fill:#85cc34;fill-opacity:1;fill-rule:nonzero;stroke:none"
         d="m 2173.76,4358.08 c -12.08,-6.11 -27.72,-5.71 -47.42,4.91 -58.22,31.35 -93.19,118.29 -125.66,172.24 -97.84,162.56 -187.73,320.98 -329.56,450.63 -162.59,148.62 -301.41,289.71 -500.86,368.27 -75.05,29.53 -206.412,109.35 -138.22,209.88 44.3,65.35 158.76,25.04 217.82,8.12 312.34,-89.51 567.33,-345.07 746.59,-625.44 51.54,-80.65 97.42,-169.6 132.93,-258.57 31.25,-78.19 78.03,-164.97 77.33,-251.25 -0.24,-32.97 -10.28,-67.33 -32.95,-78.79" /></g></g></svg>